<mxfile host="65bd71144e">
    <diagram id="STfVo8O3TFRTdBVkf1_Z" name="Page-1">
        <mxGraphModel dx="570" dy="397" grid="1" gridSize="10" guides="1" tooltips="1" connect="1" arrows="1" fold="1" page="1" pageScale="1" pageWidth="850" pageHeight="1100" math="0" shadow="0">
            <root>
                <mxCell id="0"/>
                <mxCell id="1" parent="0"/>
                <mxCell id="2" value="&lt;font color=&quot;#000000&quot;&gt;App.js&lt;br&gt;&lt;br&gt;&lt;br&gt;&lt;br&gt;&lt;br&gt;&lt;br&gt;&lt;br&gt;&lt;br&gt;&lt;br&gt;&lt;br&gt;&lt;br&gt;&lt;br&gt;&lt;br&gt;&lt;br&gt;&lt;br&gt;&lt;br&gt;&lt;br&gt;&lt;br&gt;&lt;br&gt;&lt;br&gt;&lt;br&gt;&lt;br&gt;&lt;br&gt;&lt;br&gt;&lt;br&gt;&lt;br&gt;&lt;br&gt;&lt;br&gt;&lt;br&gt;&lt;br&gt;&lt;br&gt;&lt;br&gt;&lt;br&gt;&lt;br&gt;&lt;br&gt;&lt;br&gt;&lt;br&gt;&lt;br&gt;&lt;br&gt;&lt;br&gt;&lt;br&gt;&lt;br&gt;&lt;br&gt;&lt;br&gt;&lt;br&gt;&lt;br&gt;&lt;br&gt;&lt;br&gt;&lt;br&gt;&lt;/font&gt;" style="rounded=0;whiteSpace=wrap;html=1;fillColor=#FFFFFF;" vertex="1" parent="1">
                    <mxGeometry x="50" y="20" width="770" height="710" as="geometry"/>
                </mxCell>
                <mxCell id="3" value="Header&amp;nbsp; &amp;nbsp; &amp;nbsp; &amp;nbsp; &amp;nbsp; &amp;nbsp; &amp;nbsp; &amp;nbsp; &amp;nbsp; &amp;nbsp; &amp;nbsp; &amp;nbsp;&amp;nbsp;&lt;span style=&quot;white-space: pre&quot;&gt;&#9;&lt;/span&gt;&lt;span style=&quot;white-space: pre&quot;&gt;&#9;&lt;/span&gt;&lt;span style=&quot;white-space: pre&quot;&gt;&#9;&lt;/span&gt;&lt;span style=&quot;white-space: pre&quot;&gt;&#9;&lt;/span&gt;&lt;span style=&quot;white-space: pre&quot;&gt;&#9;&lt;/span&gt;&lt;span style=&quot;white-space: pre&quot;&gt;&#9;&lt;/span&gt;&lt;span style=&quot;white-space: pre&quot;&gt;&#9;&lt;/span&gt;&lt;span style=&quot;white-space: pre&quot;&gt;&#9;&lt;/span&gt;&lt;span style=&quot;white-space: pre&quot;&gt;&#9;&lt;/span&gt;&lt;span style=&quot;white-space: pre&quot;&gt;&#9;&lt;/span&gt;" style="rounded=0;whiteSpace=wrap;html=1;fontColor=#000000;fillColor=#FFFFFF;strokeColor=#000000;" vertex="1" parent="1">
                    <mxGeometry x="70" y="60" width="740" height="40" as="geometry"/>
                </mxCell>
                <mxCell id="4" value="&lt;font style=&quot;font-size: 8px&quot;&gt;Button to Analytics&lt;/font&gt;" style="rounded=0;whiteSpace=wrap;html=1;fontColor=#000000;fillColor=#FFFFFF;strokeColor=#000000;" vertex="1" parent="1">
                    <mxGeometry x="590" y="70" width="90" height="20" as="geometry"/>
                </mxCell>
                <mxCell id="5" value="&lt;font style=&quot;font-size: 8px&quot;&gt;Button to Scrum Board&lt;/font&gt;" style="rounded=0;whiteSpace=wrap;html=1;fontColor=#000000;fillColor=#FFFFFF;strokeColor=#000000;" vertex="1" parent="1">
                    <mxGeometry x="490" y="70" width="90" height="20" as="geometry"/>
                </mxCell>
                <mxCell id="6" value="&lt;font style=&quot;font-size: 8px&quot;&gt;Buttons for User Sign In/Out&lt;/font&gt;" style="rounded=0;whiteSpace=wrap;html=1;fontColor=#000000;fillColor=#FFFFFF;strokeColor=#000000;" vertex="1" parent="1">
                    <mxGeometry x="690" y="70" width="110" height="20" as="geometry"/>
                </mxCell>
                <mxCell id="8" value="&lt;font style=&quot;font-size: 12px&quot;&gt;TaskControl.js&lt;br&gt;&lt;br&gt;&lt;br&gt;&lt;br&gt;&lt;br&gt;&lt;br&gt;&lt;br&gt;&lt;br&gt;&lt;br&gt;&lt;br&gt;&lt;br&gt;&lt;br&gt;&lt;br&gt;&lt;br&gt;&lt;br&gt;&lt;br&gt;&lt;br&gt;&lt;br&gt;&lt;br&gt;&lt;br&gt;&lt;br&gt;&lt;br&gt;&lt;br&gt;&lt;br&gt;&lt;br&gt;&lt;br&gt;&lt;br&gt;&lt;br&gt;&lt;br&gt;&lt;br&gt;&lt;br&gt;&lt;br&gt;&lt;br&gt;&lt;br&gt;&lt;br&gt;&lt;br&gt;&lt;br&gt;&lt;br&gt;&lt;br&gt;&lt;br&gt;&lt;br&gt;&lt;/font&gt;" style="rounded=0;whiteSpace=wrap;html=1;fontSize=8;fontColor=#000000;strokeColor=#000000;fillColor=#FFFFFF;" vertex="1" parent="1">
                    <mxGeometry x="70" y="110" width="740" height="590" as="geometry"/>
                </mxCell>
                <mxCell id="9" value="ScrumBoard.js&lt;br&gt;&lt;br&gt;&lt;br&gt;&lt;br&gt;&lt;br&gt;&lt;br&gt;&lt;br&gt;&lt;br&gt;&lt;br&gt;&lt;br&gt;&lt;br&gt;&lt;br&gt;&lt;br&gt;&lt;br&gt;&lt;br&gt;&lt;br&gt;&lt;br&gt;&lt;br&gt;&lt;br&gt;&lt;br&gt;&lt;br&gt;&lt;br&gt;&lt;br&gt;&lt;br&gt;&lt;br&gt;&lt;br&gt;&lt;br&gt;&lt;br&gt;&lt;br&gt;&lt;br&gt;&lt;br&gt;&lt;br&gt;&lt;br&gt;&lt;br&gt;&lt;br&gt;&lt;br&gt;" style="rounded=0;whiteSpace=wrap;html=1;fontSize=12;fontColor=#000000;strokeColor=#000000;fillColor=#FFFFFF;" vertex="1" parent="1">
                    <mxGeometry x="90" y="150" width="250" height="540" as="geometry"/>
                </mxCell>
                <mxCell id="11" value="TaskDetail.js&lt;br&gt;&lt;br&gt;&lt;br&gt;&lt;br&gt;&lt;br&gt;&lt;br&gt;" style="rounded=0;whiteSpace=wrap;html=1;fontSize=12;fontColor=#000000;strokeColor=#000000;fillColor=#FFFFFF;" vertex="1" parent="1">
                    <mxGeometry x="360" y="150" width="440" height="110" as="geometry"/>
                </mxCell>
                <mxCell id="12" value="EditTaskForm.js&lt;br&gt;&lt;br&gt;&lt;br&gt;&lt;br&gt;&lt;br&gt;" style="rounded=0;whiteSpace=wrap;html=1;fontSize=12;fontColor=#000000;strokeColor=#000000;fillColor=#FFFFFF;" vertex="1" parent="1">
                    <mxGeometry x="360" y="390" width="440" height="110" as="geometry"/>
                </mxCell>
                <mxCell id="13" value="NewTaskForm.js&lt;br&gt;&lt;br&gt;&lt;br&gt;&lt;br&gt;&lt;br&gt;" style="rounded=0;whiteSpace=wrap;html=1;fontSize=12;fontColor=#000000;strokeColor=#000000;fillColor=#FFFFFF;" vertex="1" parent="1">
                    <mxGeometry x="360" y="270" width="440" height="110" as="geometry"/>
                </mxCell>
                <mxCell id="15" value="Update Task&lt;br&gt;&lt;br&gt;Button to EditTaskForm" style="rounded=0;whiteSpace=wrap;html=1;shadow=0;fontSize=12;fontColor=#000000;strokeColor=#000000;fillColor=#FFFFFF;" vertex="1" parent="1">
                    <mxGeometry x="380" y="190" width="160" height="60" as="geometry"/>
                </mxCell>
                <mxCell id="16" value="Delete Task&lt;br&gt;&lt;br&gt;Button to delete task" style="rounded=0;whiteSpace=wrap;html=1;shadow=0;fontSize=12;fontColor=#000000;strokeColor=#000000;fillColor=#FFFFFF;" vertex="1" parent="1">
                    <mxGeometry x="610" y="190" width="160" height="60" as="geometry"/>
                </mxCell>
                <mxCell id="17" value="Add Task&lt;br&gt;&lt;br&gt;Button will add task, then show ScrumBoard" style="rounded=0;whiteSpace=wrap;html=1;shadow=0;fontSize=12;fontColor=#000000;strokeColor=#000000;fillColor=#FFFFFF;" vertex="1" parent="1">
                    <mxGeometry x="500" y="310" width="160" height="60" as="geometry"/>
                </mxCell>
                <mxCell id="18" value="Update Task&lt;br&gt;&lt;br&gt;Button will update task, then show ScrumBoard" style="rounded=0;whiteSpace=wrap;html=1;shadow=0;fontSize=12;fontColor=#000000;strokeColor=#000000;fillColor=#FFFFFF;" vertex="1" parent="1">
                    <mxGeometry x="500" y="430" width="160" height="60" as="geometry"/>
                </mxCell>
                <mxCell id="19" value="DataAnalytics.js&lt;br&gt;&lt;br&gt;&lt;br&gt;&lt;br&gt;&lt;br&gt;TBA other components inside DataAnalytics&lt;br&gt;&lt;br&gt;&lt;br&gt;&lt;br&gt;&lt;br&gt;" style="rounded=0;whiteSpace=wrap;html=1;shadow=0;fontSize=12;fontColor=#000000;strokeColor=#000000;fillColor=#FFFFFF;" vertex="1" parent="1">
                    <mxGeometry x="360" y="510" width="440" height="180" as="geometry"/>
                </mxCell>
                <mxCell id="20" value="Task.js&lt;br&gt;&lt;br&gt;Click task to show a task's details&lt;br&gt;&lt;br&gt;&lt;br&gt;&lt;br&gt;" style="rounded=0;whiteSpace=wrap;html=1;shadow=0;fontSize=12;fontColor=#000000;strokeColor=#000000;fillColor=#FFFFFF;" vertex="1" parent="1">
                    <mxGeometry x="100" y="200" width="230" height="140" as="geometry"/>
                </mxCell>
                <mxCell id="21" value="Task.js" style="rounded=0;whiteSpace=wrap;html=1;shadow=0;fontSize=12;fontColor=#000000;strokeColor=#000000;fillColor=#FFFFFF;" vertex="1" parent="1">
                    <mxGeometry x="100" y="355" width="230" height="60" as="geometry"/>
                </mxCell>
                <mxCell id="22" value="Task.js" style="rounded=0;whiteSpace=wrap;html=1;shadow=0;fontSize=12;fontColor=#000000;strokeColor=#000000;fillColor=#FFFFFF;" vertex="1" parent="1">
                    <mxGeometry x="100" y="430" width="230" height="60" as="geometry"/>
                </mxCell>
                <mxCell id="23" value="&lt;font style=&quot;font-size: 8px&quot;&gt;Button to move task column on left&lt;/font&gt;" style="rounded=0;whiteSpace=wrap;html=1;shadow=0;fontSize=12;fontColor=#000000;strokeColor=#000000;fillColor=#FFFFFF;" vertex="1" parent="1">
                    <mxGeometry x="110" y="280" width="90" height="50" as="geometry"/>
                </mxCell>
                <mxCell id="24" value="&lt;font style=&quot;font-size: 8px&quot;&gt;Button to move task column on right&lt;/font&gt;" style="rounded=0;whiteSpace=wrap;html=1;shadow=0;fontSize=12;fontColor=#000000;strokeColor=#000000;fillColor=#FFFFFF;" vertex="1" parent="1">
                    <mxGeometry x="220" y="280" width="90" height="50" as="geometry"/>
                </mxCell>
                <mxCell id="26" value="&lt;font style=&quot;font-size: 8px&quot;&gt;Button to add new task, leads to NewTaskForm&lt;/font&gt;" style="rounded=0;whiteSpace=wrap;html=1;shadow=0;fontSize=12;fontColor=#000000;strokeColor=#000000;fillColor=#FFFFFF;" vertex="1" parent="1">
                    <mxGeometry x="100" y="500" width="230" height="30" as="geometry"/>
                </mxCell>
                <mxCell id="27" value="&lt;font style=&quot;font-size: 8px&quot;&gt;Button to archive &quot;done&quot; tasks, leads to Archive&lt;/font&gt;" style="rounded=0;whiteSpace=wrap;html=1;shadow=0;fontSize=12;fontColor=#000000;strokeColor=#000000;fillColor=#FFFFFF;" vertex="1" parent="1">
                    <mxGeometry x="100" y="535" width="230" height="30" as="geometry"/>
                </mxCell>
                <mxCell id="28" value="&lt;font style=&quot;font-size: 12px&quot;&gt;Archive.js&lt;br&gt;&lt;br&gt;&lt;br&gt;&lt;br&gt;&lt;br&gt;&lt;/font&gt;" style="rounded=0;whiteSpace=wrap;html=1;shadow=0;fontSize=8;fontColor=#000000;strokeColor=#000000;fillColor=#FFFFFF;" vertex="1" parent="1">
                    <mxGeometry x="100" y="580" width="230" height="90" as="geometry"/>
                </mxCell>
                <mxCell id="29" value="&lt;font style=&quot;font-size: 8px&quot;&gt;Button to empty all tasks from Archive?&lt;/font&gt;" style="rounded=0;whiteSpace=wrap;html=1;shadow=0;fontSize=12;fontColor=#000000;strokeColor=#000000;fillColor=#FFFFFF;" vertex="1" parent="1">
                    <mxGeometry x="120" y="620" width="190" height="30" as="geometry"/>
                </mxCell>
            </root>
        </mxGraphModel>
    </diagram>
</mxfile>